<svg xmlns="http://www.w3.org/2000/svg" viewBox="0 0 780 109"><g fill="currentColor"><path d="M.553 1.045L20.033 1.045 52.188 70.798 52.496 70.798 84.808 1.045 104.285 1.045 104.285 109.068 84.035 109.068 84.035 43.329 83.725 43.329 58.835 93.946 45.848 93.946 21.114 43.329 20.806 43.329 20.806 109.068.553 109.068zM124.376 1.045L202.6 1.045 202.6 18.791 145.399 18.791 145.399 46.106 198.116 46.106 198.116 63.544 145.399 63.544 145.399 91.322 202.6 91.322 202.6 109.068 124.376 109.068 124.376 1.045zM242.631 18.791L210.321 18.791 210.321 1.045 295.966 1.045 295.966 18.791 263.656 18.791 263.656 109.068 242.631 109.068zM414.68 46.183v19.136l-108.216 39.505V83.528l23.961-8.795V36.769l-23.961-8.796V6.678l108.215 39.505zm-66.94 23.92l41.122-14.353v-.308L347.74 41.554v28.548zM424.224 1.045h69.258l18.552 18.517v70.989l-18.552 18.517h-69.258V1.045zm58.901 90.123l7.884-7.87V26.817l-7.884-7.871H445.25v72.222h37.876zM558.56 1.045h19.167l39.577 108.023h-21.333l-8.813-23.92h-38.03l-8.812 23.92h-21.334L558.56 1.045zm23.961 66.82l-14.378-41.048h-.31l-13.912 41.048h28.6zM638.786 18.791L606.476 18.791 606.476 1.045 692.121 1.045 692.121 18.791 659.809 18.791 659.809 109.068 638.786 109.068zM720.867 1.045h19.17l39.575 108.023H758.28l-8.813-23.92h-38.03l-8.81 23.92H681.29L720.867 1.045zm23.962 66.82L730.45 26.817h-.31l-13.913 41.048h28.6z" transform="translate(0 -1)"/></g></svg>
